<?xml version="1.0" standalone="no"?>
<svg xmlns="http://www.w3.org/2000/svg" viewBox="0 0 158.832 29" width="158.832" height="29"><g fill="#72edca" color="#72edca" transform="translate(0, 0) scale(0.29)"><svg width="100.0" height="100.0" x="0.0" y="0.0" viewBox="0 0 100 100"><path d="M50.002,9.096L19.807,50l30.195,40.904L80.194,50L50.002,9.096z M26.97,50l23.032-30.137L73.032,50l-23.03,30.137L26.97,50z  "></path></svg></g><line x1="41" y1="1" x2="41" y2="28" stroke="#0019ff" stroke-linecap="round"></line><path fill="#0019ff" fill-rule="nonzero" d="M16.82 0Q18.98 0 20.06 1.24Q21.14 2.47 21.14 4.75L21.14 4.75L21.14 12.96L16.37 12.96L16.37 5.33Q16.37 4.51 15.97 4.02Q15.58 3.53 14.86 3.53L14.86 3.53Q14.02 3.53 13.49 4.10Q12.96 4.68 12.96 5.52L12.96 5.52L12.96 12.96L8.18 12.96L8.18 5.33Q8.18 4.51 7.79 4.02Q7.39 3.53 6.67 3.53L6.67 3.53Q5.83 3.53 5.30 4.10Q4.78 4.68 4.78 5.52L4.78 5.52L4.78 12.96L0 12.96L0 0.29L3.91 0.29L4.22 2.18Q4.94 1.18 6.13 0.59Q7.32 0 8.64 0L8.64 0Q11.50 0 12.48 2.18L12.48 2.18Q13.22 1.18 14.39 0.59Q15.55 0 16.82 0L16.82 0ZM37.10 12.96L33.19 12.96L32.88 11.04Q32.14 12.07 30.92 12.66Q29.71 13.25 28.37 13.25L28.37 13.25Q26.16 13.25 25.06 12.02Q23.95 10.80 23.95 8.50L23.95 8.50L23.95 0.29L28.73 0.29L28.73 7.92Q28.73 8.74 29.15 9.23Q29.57 9.72 30.34 9.72L30.34 9.72Q31.22 9.72 31.78 9.14Q32.33 8.57 32.33 7.73L32.33 7.73L32.33 0.29L37.10 0.29L37.10 12.96ZM46.03 0Q48.58 0 50.34 1.00Q52.10 1.99 52.10 4.08L52.10 4.08L47.66 4.08Q47.66 3.38 47.04 3.10L47.04 3.10Q46.61 2.86 45.96 2.86L45.96 2.86Q44.23 2.86 44.23 3.67L44.23 3.67Q44.23 4.13 44.83 4.32Q45.43 4.51 46.80 4.73L46.80 4.73Q48.48 4.97 49.61 5.29Q50.74 5.62 51.58 6.44Q52.42 7.27 52.42 8.76L52.42 8.76Q52.42 11.18 50.60 12.22Q48.79 13.25 45.86 13.25L45.86 13.25Q44.18 13.25 42.70 12.78Q41.21 12.31 40.27 11.33Q39.34 10.34 39.34 8.83L39.34 8.83L43.78 8.83L43.78 8.93Q43.80 9.74 44.46 10.07Q45.12 10.39 45.86 10.39L45.86 10.39Q47.86 10.39 47.86 9.46L47.86 9.46Q47.86 8.98 47.23 8.76Q46.61 8.54 45.19 8.30L45.19 8.30Q43.49 8.02 42.40 7.68Q41.30 7.34 40.49 6.54Q39.67 5.74 39.67 4.30L39.67 4.30Q39.67 1.97 41.44 0.98Q43.20 0 46.03 0L46.03 0ZM61.22 0Q64.70 0 66.54 1.63Q68.38 3.26 68.38 6.62L68.38 6.62L68.38 7.44L58.87 7.44Q58.87 8.81 59.48 9.50Q60.10 10.20 61.42 10.20L61.42 10.20Q62.62 10.20 63.18 9.70Q63.74 9.19 63.74 8.35L63.74 8.35L68.38 8.35Q68.38 10.66 66.62 11.95Q64.87 13.25 61.51 13.25L61.51 13.25Q57.98 13.25 56.04 11.60Q54.10 9.96 54.10 6.62L54.10 6.62Q54.10 3.36 55.99 1.68Q57.89 0 61.22 0L61.22 0ZM61.42 3.05Q59.16 3.05 58.90 5.18L58.90 5.18L63.55 5.18Q63.55 4.20 62.99 3.62Q62.42 3.05 61.42 3.05L61.42 3.05ZM83.78 12.96L79.87 12.96L79.56 11.04Q78.82 12.07 77.60 12.66Q76.39 13.25 75.05 13.25L75.05 13.25Q72.84 13.25 71.74 12.02Q70.63 10.80 70.63 8.50L70.63 8.50L70.63 0.29L75.41 0.29L75.41 7.92Q75.41 8.74 75.83 9.23Q76.25 9.72 77.02 9.72L77.02 9.72Q77.90 9.72 78.46 9.14Q79.01 8.57 79.01 7.73L79.01 7.73L79.01 0.29L83.78 0.29L83.78 12.96ZM103.51 0Q105.67 0 106.75 1.24Q107.83 2.47 107.83 4.75L107.83 4.75L107.83 12.96L103.06 12.96L103.06 5.33Q103.06 4.51 102.66 4.02Q102.26 3.53 101.54 3.53L101.54 3.53Q100.70 3.53 100.18 4.10Q99.65 4.68 99.65 5.52L99.65 5.52L99.65 12.96L94.87 12.96L94.87 5.33Q94.87 4.51 94.48 4.02Q94.08 3.53 93.36 3.53L93.36 3.53Q92.52 3.53 91.99 4.10Q91.46 4.68 91.46 5.52L91.46 5.52L91.46 12.96L86.69 12.96L86.69 0.29L90.60 0.29L90.91 2.18Q91.63 1.18 92.82 0.59Q94.01 0 95.33 0L95.33 0Q98.18 0 99.17 2.18L99.17 2.18Q99.91 1.18 101.08 0.59Q102.24 0 103.51 0L103.51 0Z" transform="translate(51, 8.02)"></path></svg>